<svg width="36" height="36" viewBox="0 0 36 36" fill="none" xmlns="http://www.w3.org/2000/svg">
<path fill-rule="evenodd" clip-rule="evenodd" d="M21.4348 21.0002C23.7894 21.048 25.7842 22.748 26.2048 25.0652L26.5498 26.7752C26.8906 28.2511 26.5556 29.8021 25.6361 31.0058C24.7166 32.2096 23.3084 32.9407 21.7948 33.0002H7.85981C6.34416 32.9461 4.93232 32.2163 4.0117 31.011C3.09107 29.8058 2.75834 28.2517 3.10481 26.7752L3.44981 25.0652C3.86387 22.7504 5.85375 21.0492 8.20481 21.0002H21.4348ZM21.7948 30.7502C22.5528 30.7434 23.2659 30.3896 23.7298 29.7902C24.3245 29.0724 24.5517 28.119 24.3448 27.2102L23.9998 25.5002C23.7881 24.2336 22.7179 23.2886 21.4348 23.2352H8.20481C6.92518 23.2898 5.86 24.2359 5.65481 25.5002L5.38481 27.2252C5.18278 28.1293 5.40978 29.076 5.99981 29.7902C6.44733 30.3695 7.12835 30.721 7.85981 30.7502H21.7948Z" fill="#222222"/>
<path fill-rule="evenodd" clip-rule="evenodd" d="M15.5698 18.0002H14.0698C10.7561 18.0002 8.06981 15.3139 8.06981 12.0002V8.0402C8.06981 5.25669 10.3263 3.0002 13.1098 3.0002H16.4998C17.8429 2.98817 19.1349 3.51433 20.0875 4.46126C21.0401 5.40819 21.5739 6.69706 21.5698 8.0402V12.0002C21.5698 15.3139 18.8835 18.0002 15.5698 18.0002ZM13.1098 5.2502C11.5689 5.2502 10.3198 6.49933 10.3198 8.0402V12.0002C10.3279 14.0563 11.9839 15.7256 14.0398 15.7502H15.5398C16.5344 15.7502 17.4882 15.3551 18.1915 14.6519C18.8947 13.9486 19.2898 12.9948 19.2898 12.0002V8.0402C19.2898 6.49933 18.0407 5.2502 16.4998 5.2502H13.1098Z" fill="#222222"/>
<path d="M32.0698 9.3752H29.9998V7.3202C29.9998 6.69888 29.4961 6.1952 28.8748 6.1952C28.2535 6.1952 27.7498 6.69888 27.7498 7.3202V9.3752H25.7098C25.0885 9.3752 24.5848 9.87888 24.5848 10.5002C24.5848 11.1215 25.0885 11.6252 25.7098 11.6252H27.7648V13.6802C27.7648 14.3015 28.2685 14.8052 28.8898 14.8052C29.5111 14.8052 30.0148 14.3015 30.0148 13.6802V11.6252H32.0698C32.6911 11.6252 33.1948 11.1215 33.1948 10.5002C33.1948 9.87888 32.6911 9.3752 32.0698 9.3752Z" fill="#222222"/>
</svg>
