<svg width="36" height="36" viewBox="0 0 36 36" fill="none" xmlns="http://www.w3.org/2000/svg">
<path fill-rule="evenodd" clip-rule="evenodd" d="M11.6851 22.9044L12.7801 17.7894C12.9395 17.0786 13.2986 16.4281 13.8151 15.9144L23.8201 5.99941C24.8347 4.96587 26.2122 4.36858 27.6601 4.33441C28.7521 4.31876 29.8051 4.73997 30.5851 5.50441C32.2894 7.5181 32.0694 10.5252 30.0901 12.2694L20.0851 22.2744C19.5714 22.7909 18.9209 23.15 18.2101 23.3094L13.0951 24.4044H12.8101C12.4362 24.4187 12.079 24.2486 11.8545 23.9492C11.63 23.6499 11.5667 23.2594 11.6851 22.9044ZM15.4051 17.5194C15.1949 17.7231 15.0489 17.9838 14.9851 18.2694L14.2501 21.7644L17.7451 21.0144C18.0307 20.9506 18.2914 20.8046 18.4951 20.5944L28.5001 10.5894C29.5961 9.71194 29.8136 8.13012 28.9951 6.98941C28.6367 6.64697 28.1556 6.46316 27.6601 6.47941C26.806 6.5137 25.9988 6.8796 25.4101 7.49941L15.4051 17.5194Z" fill="#FE4B18"/>
<path d="M29.8651 16.3944C29.2472 16.4025 28.7482 16.9015 28.7401 17.5194V26.0544C28.7602 27.2608 28.295 28.4248 27.4489 29.285C26.6028 30.1452 25.4467 30.6296 24.2401 30.6294H9.94512C7.45117 30.5805 5.45279 28.5488 5.44512 26.0544V11.8194C5.48606 9.32204 7.52242 7.31907 10.0201 7.31941H18.5551C19.1764 7.31941 19.6801 6.81573 19.6801 6.19441C19.6801 5.57308 19.1764 5.06941 18.5551 5.06941H9.94512C6.20487 5.06918 3.16122 8.07938 3.12012 11.8194V26.0544C3.12012 29.8237 6.17577 32.8794 9.94512 32.8794H24.1801C27.9436 32.8711 30.9901 29.8179 30.9901 26.0544V17.5194C30.982 16.9015 30.4831 16.4025 29.8651 16.3944Z" fill="#FE4B18"/>
</svg>
