<svg width="48" height="48" viewBox="0 0 48 48" fill="none" xmlns="http://www.w3.org/2000/svg">
<path fill-rule="evenodd" clip-rule="evenodd" d="M9.92269 4.0013H38.2827V4.0213C40.6726 3.97971 42.8433 5.40855 43.7501 7.62018C44.6568 9.8318 44.114 12.3732 42.3827 14.0213L32.8427 23.5613C31.7808 24.6251 31.1716 26.0585 31.1427 27.5613V36.3613C31.1396 38.1862 30.2807 39.9039 28.8227 41.0013L26.3427 42.8613C24.5889 44.1958 22.2288 44.417 20.2577 43.4314C18.2865 42.4458 17.0473 40.4251 17.0627 38.2213V27.5613C17.0338 26.0585 16.4246 24.6251 15.3627 23.5613L5.82269 14.0213C4.0762 12.3757 3.52345 9.82444 4.43221 7.60352C5.34097 5.3826 7.52357 3.95063 9.92269 4.0013ZM40.8827 8.7413C40.4511 7.68606 39.4228 6.99788 38.2827 7.0013H9.92269C8.7826 6.99788 7.75429 7.68606 7.32269 8.7413C6.87714 9.79142 7.12352 11.0074 7.94269 11.8013L17.5227 21.3413C19.1808 22.9855 20.1102 25.2262 20.1027 27.5613V38.2213C20.092 38.9586 20.3747 39.67 20.8886 40.1989C21.4024 40.7277 22.1054 41.0308 22.8427 41.0413C23.4452 41.0386 24.0296 40.8344 24.5027 40.4613L26.9827 38.6013C27.6877 38.0725 28.1027 37.2426 28.1027 36.3613V27.5613C28.1057 25.2203 29.0498 22.9789 30.7227 21.3413L40.2627 11.8013C41.0819 11.0074 41.3282 9.79142 40.8827 8.7413Z" fill="#FE4B18"/>
</svg>
