<svg width="32" height="32" viewBox="0 0 32 32" fill="none" xmlns="http://www.w3.org/2000/svg">
<path fill-rule="evenodd" clip-rule="evenodd" d="M19.7244 6.14693L25.7911 12.2136C26.8997 13.3269 26.8997 15.127 25.7911 16.2403L22.0711 19.9603C21.8597 20.1784 21.6801 20.4253 21.5378 20.6936L19.4844 24.8136C19.0712 25.6314 18.292 26.2025 17.3877 26.3501C16.4834 26.4978 15.5629 26.2042 14.9111 25.5603L11.3511 22.0003L7.04443 26.3069C6.85792 26.4958 6.60319 26.6015 6.33777 26.6003C6.07143 26.6063 5.81489 26.4998 5.6311 26.3069C5.4405 26.1212 5.33301 25.8664 5.33301 25.6003C5.33301 25.3341 5.4405 25.0793 5.6311 24.8936L9.93777 20.5869L6.37777 17.0269C5.72805 16.3777 5.43061 15.4553 5.57861 14.5488C5.72661 13.6423 6.30196 12.8625 7.12443 12.4536L11.2444 10.4003C11.5128 10.2579 11.7596 10.0783 11.9778 9.86693L15.7244 6.14693C16.8375 5.063 18.6114 5.063 19.7244 6.14693ZM20.5644 18.4403L24.2711 14.7336C24.5604 14.4641 24.5783 14.0117 24.3111 13.7203L18.2578 7.66693C18.1247 7.53008 17.942 7.45287 17.7511 7.45287C17.5602 7.45287 17.3775 7.53008 17.2444 7.66693L13.5378 11.3736C13.1482 11.7566 12.6976 12.072 12.2044 12.3069L8.08443 14.3736C7.87593 14.4704 7.73047 14.666 7.69776 14.8936C7.65449 15.1188 7.73003 15.3505 7.89776 15.5069L16.4311 24.0403C16.5573 24.1789 16.737 24.2566 16.9244 24.2536C17.198 24.2582 17.4487 24.1015 17.5644 23.8536L19.6311 19.7736C19.866 19.2804 20.1815 18.8298 20.5644 18.4403Z" fill="#222222"/>
</svg>
